solid Buildlt.VenturaAngelo.unibz
facet normal 0.0 -1.0 0.0
  outer loop
    vertex 31.799999999999986 45.09999999999999 3.9999999999999996
    vertex 15.400000000000016 45.09999999999999 0.0
    vertex 31.799999999999986 45.09999999999999 0.0
  endloop
endfacet
facet normal 0.0 -1.0 0.0
  outer loop
    vertex 15.400000000000016 45.09999999999999 0.0
    vertex 31.799999999999986 45.09999999999999 3.9999999999999996
    vertex 15.400000000000016 45.09999999999999 3.9999999999999996
  endloop
endfacet
facet normal 0.0 -1.0 0.0
  outer loop
    vertex 31.400000000000077 0.0 3.9999999999999996
    vertex 15.800000000000017 0.0 0.0
    vertex 31.400000000000077 0.0 0.0
  endloop
endfacet
facet normal 0.0 -1.0 0.0
  outer loop
    vertex 15.800000000000017 0.0 0.0
    vertex 31.400000000000077 0.0 3.9999999999999996
    vertex 15.800000000000017 0.0 3.9999999999999996
  endloop
endfacet
facet normal 0.0 -1.0 0.0
  outer loop
    vertex 10.699999999999912 36.00000000000002 3.9999999999999996
    vertex 6.399999999999898 36.00000000000002 0.0
    vertex 10.699999999999912 36.00000000000002 0.0
  endloop
endfacet
facet normal 0.0 -1.0 0.0
  outer loop
    vertex 6.399999999999898 36.00000000000002 0.0
    vertex 10.699999999999912 36.00000000000002 3.9999999999999996
    vertex 6.399999999999898 36.00000000000002 3.9999999999999996
  endloop
endfacet
facet normal 0.0 -1.0 0.0
  outer loop
    vertex 78.80000000000013 4.199999999999992 3.9999999999999996
    vertex 63.000000000000114 4.199999999999992 0.0
    vertex 78.80000000000013 4.199999999999992 0.0
  endloop
endfacet
facet normal 0.0 -1.0 0.0
  outer loop
    vertex 63.000000000000114 4.199999999999992 0.0
    vertex 78.80000000000013 4.199999999999992 3.9999999999999996
    vertex 63.000000000000114 4.199999999999992 3.9999999999999996
  endloop
endfacet
facet normal -1.0 0.0 0.0
  outer loop
    vertex 63.30000000000004 51.40000000000004 3.9999999999999996
    vertex 63.30000000000004 47.2 0.0
    vertex 63.30000000000004 47.2 3.9999999999999996
  endloop
endfacet
facet normal -1.0 0.0 0.0
  outer loop
    vertex 63.30000000000004 47.2 0.0
    vertex 63.30000000000004 51.40000000000004 3.9999999999999996
    vertex 63.30000000000004 51.40000000000004 0.0
  endloop
endfacet
facet normal 0.0 -1.0 0.0
  outer loop
    vertex 15.800000000000017 4.199999999999992 3.9999999999999996
    vertex 0.0 4.199999999999992 0.0
    vertex 15.800000000000017 4.199999999999992 0.0
  endloop
endfacet
facet normal 0.0 -1.0 0.0
  outer loop
    vertex 0.0 4.199999999999992 0.0
    vertex 15.800000000000017 4.199999999999992 3.9999999999999996
    vertex 0.0 4.199999999999992 3.9999999999999996
  endloop
endfacet
facet normal -1.0 0.0 0.0
  outer loop
    vertex 15.800000000000017 4.199999999999992 3.9999999999999996
    vertex 15.800000000000017 0.0 0.0
    vertex 15.800000000000017 0.0 3.9999999999999996
  endloop
endfacet
facet normal -1.0 0.0 0.0
  outer loop
    vertex 15.800000000000017 0.0 0.0
    vertex 15.800000000000017 4.199999999999992 3.9999999999999996
    vertex 15.800000000000017 4.199999999999992 0.0
  endloop
endfacet
facet normal 0.0 -1.0 0.0
  outer loop
    vertex 47.40000000000005 4.199999999999992 3.9999999999999996
    vertex 31.400000000000077 4.199999999999992 0.0
    vertex 47.40000000000005 4.199999999999992 0.0
  endloop
endfacet
facet normal 0.0 -1.0 0.0
  outer loop
    vertex 31.400000000000077 4.199999999999992 0.0
    vertex 47.40000000000005 4.199999999999992 3.9999999999999996
    vertex 31.400000000000077 4.199999999999992 3.9999999999999996
  endloop
endfacet
facet normal 1.0 0.0 0.0
  outer loop
    vertex 78.80000000000013 19.999999999999964 0.0
    vertex 78.80000000000013 4.199999999999992 3.9999999999999996
    vertex 78.80000000000013 4.199999999999992 0.0
  endloop
endfacet
facet normal 1.0 0.0 0.0
  outer loop
    vertex 78.80000000000013 4.199999999999992 3.9999999999999996
    vertex 78.80000000000013 19.999999999999964 0.0
    vertex 78.80000000000013 19.999999999999964 3.9999999999999996
  endloop
endfacet
facet normal 1.0 0.0 0.0
  outer loop
    vertex 47.200000000000095 51.40000000000004 0.0
    vertex 47.200000000000095 47.2 3.9999999999999996
    vertex 47.200000000000095 47.2 0.0
  endloop
endfacet
facet normal 1.0 0.0 0.0
  outer loop
    vertex 47.200000000000095 47.2 3.9999999999999996
    vertex 47.200000000000095 51.40000000000004 0.0
    vertex 47.200000000000095 51.40000000000004 3.9999999999999996
  endloop
endfacet
facet normal 0.0 1.0 0.0
  outer loop
    vertex 6.399999999999898 19.599999999999962 3.9999999999999996
    vertex 10.699999999999912 19.599999999999962 0.0
    vertex 6.399999999999898 19.599999999999962 0.0
  endloop
endfacet
facet normal 0.0 1.0 0.0
  outer loop
    vertex 10.699999999999912 19.599999999999962 0.0
    vertex 6.399999999999898 19.599999999999962 3.9999999999999996
    vertex 10.699999999999912 19.599999999999962 3.9999999999999996
  endloop
endfacet
facet normal 0.0 1.0 0.0
  outer loop
    vertex 63.30000000000004 51.40000000000004 3.9999999999999996
    vertex 78.80000000000013 51.40000000000004 0.0
    vertex 63.30000000000004 51.40000000000004 0.0
  endloop
endfacet
facet normal 0.0 1.0 0.0
  outer loop
    vertex 78.80000000000013 51.40000000000004 0.0
    vertex 63.30000000000004 51.40000000000004 3.9999999999999996
    vertex 78.80000000000013 51.40000000000004 3.9999999999999996
  endloop
endfacet
facet normal 0.0 0.0 1.0
  outer loop
    vertex 31.400000000000077 0.0 3.9999999999999996
    vertex 15.800000000000017 4.199999999999992 3.9999999999999996
    vertex 15.800000000000017 0.0 3.9999999999999996
  endloop
endfacet
facet normal 0.0 0.0 1.0
  outer loop
    vertex 63.000000000000114 0.0 3.9999999999999996
    vertex 47.40000000000005 4.199999999999992 3.9999999999999996
    vertex 47.40000000000005 0.0 3.9999999999999996
  endloop
endfacet
facet normal 0.0 0.0 1.0
  outer loop
    vertex 15.800000000000017 4.199999999999992 3.9999999999999996
    vertex 0.0 19.800000000000008 3.9999999999999996
    vertex 0.0 4.199999999999992 3.9999999999999996
  endloop
endfacet
facet normal 0.0 0.0 1.0
  outer loop
    vertex 0.0 19.800000000000008 3.9999999999999996
    vertex 15.800000000000017 4.199999999999992 3.9999999999999996
    vertex 4.199999999999947 19.800000000000008 3.9999999999999996
  endloop
endfacet
facet normal 0.0 0.0 1.0
  outer loop
    vertex 4.199999999999947 19.800000000000008 3.9999999999999996
    vertex 15.800000000000017 4.199999999999992 3.9999999999999996
    vertex 6.399999999999898 19.599999999999962 3.9999999999999996
  endloop
endfacet
facet normal 0.0 0.0 1.0
  outer loop
    vertex 4.199999999999947 19.800000000000008 3.9999999999999996
    vertex 6.399999999999898 19.599999999999962 3.9999999999999996
    vertex 4.199999999999947 35.79999999999998 3.9999999999999996
  endloop
endfacet
facet normal 0.0 0.0 1.0
  outer loop
    vertex 6.399999999999898 19.599999999999962 3.9999999999999996
    vertex 15.800000000000017 4.199999999999992 3.9999999999999996
    vertex 10.699999999999912 19.599999999999962 3.9999999999999996
  endloop
endfacet
facet normal 0.0 0.0 1.0
  outer loop
    vertex 10.699999999999912 19.599999999999962 3.9999999999999996
    vertex 15.800000000000017 4.199999999999992 3.9999999999999996
    vertex 10.699999999999912 36.00000000000002 3.9999999999999996
  endloop
endfacet
facet normal 0.0 0.0 1.0
  outer loop
    vertex 10.699999999999912 36.00000000000002 3.9999999999999996
    vertex 15.800000000000017 4.199999999999992 3.9999999999999996
    vertex 15.400000000000016 40.70000000000004 3.9999999999999996
  endloop
endfacet
facet normal 0.0 0.0 1.0
  outer loop
    vertex 15.400000000000016 40.70000000000004 3.9999999999999996
    vertex 15.800000000000017 4.199999999999992 3.9999999999999996
    vertex 31.799999999999986 40.70000000000004 3.9999999999999996
  endloop
endfacet
facet normal 0.0 0.0 1.0
  outer loop
    vertex 31.799999999999986 40.70000000000004 3.9999999999999996
    vertex 15.800000000000017 4.199999999999992 3.9999999999999996
    vertex 31.400000000000077 4.199999999999992 3.9999999999999996
  endloop
endfacet
facet normal 0.0 0.0 1.0
  outer loop
    vertex 31.400000000000077 4.199999999999992 3.9999999999999996
    vertex 15.800000000000017 4.199999999999992 3.9999999999999996
    vertex 31.400000000000077 0.0 3.9999999999999996
  endloop
endfacet
facet normal 0.0 0.0 1.0
  outer loop
    vertex 31.799999999999986 40.70000000000004 3.9999999999999996
    vertex 31.400000000000077 4.199999999999992 3.9999999999999996
    vertex 47.40000000000005 4.199999999999992 3.9999999999999996
  endloop
endfacet
facet normal 0.0 0.0 1.0
  outer loop
    vertex 31.799999999999986 40.70000000000004 3.9999999999999996
    vertex 47.40000000000005 4.199999999999992 3.9999999999999996
    vertex 31.799999999999986 45.09999999999999 3.9999999999999996
  endloop
endfacet
facet normal 0.0 0.0 1.0
  outer loop
    vertex 31.799999999999986 45.09999999999999 3.9999999999999996
    vertex 47.40000000000005 4.199999999999992 3.9999999999999996
    vertex 47.00000000000014 40.70000000000004 3.9999999999999996
  endloop
endfacet
facet normal 0.0 0.0 1.0
  outer loop
    vertex 47.00000000000014 40.70000000000004 3.9999999999999996
    vertex 47.40000000000005 4.199999999999992 3.9999999999999996
    vertex 63.40000000000011 40.70000000000004 3.9999999999999996
  endloop
endfacet
facet normal 0.0 0.0 1.0
  outer loop
    vertex 63.40000000000011 40.70000000000004 3.9999999999999996
    vertex 47.40000000000005 4.199999999999992 3.9999999999999996
    vertex 63.000000000000114 4.199999999999992 3.9999999999999996
  endloop
endfacet
facet normal 0.0 0.0 1.0
  outer loop
    vertex 63.000000000000114 4.199999999999992 3.9999999999999996
    vertex 47.40000000000005 4.199999999999992 3.9999999999999996
    vertex 63.000000000000114 0.0 3.9999999999999996
  endloop
endfacet
facet normal 0.0 0.0 1.0
  outer loop
    vertex 63.40000000000011 40.70000000000004 3.9999999999999996
    vertex 63.000000000000114 4.199999999999992 3.9999999999999996
    vertex 78.80000000000013 4.199999999999992 3.9999999999999996
  endloop
endfacet
facet normal 0.0 0.0 1.0
  outer loop
    vertex 63.40000000000011 40.70000000000004 3.9999999999999996
    vertex 78.80000000000013 4.199999999999992 3.9999999999999996
    vertex 63.40000000000011 45.09999999999999 3.9999999999999996
  endloop
endfacet
facet normal 0.0 0.0 1.0
  outer loop
    vertex 83.00000000000007 19.999999999999964 3.9999999999999996
    vertex 78.80000000000013 35.60000000000002 3.9999999999999996
    vertex 78.80000000000013 19.999999999999964 3.9999999999999996
  endloop
endfacet
facet normal 0.0 0.0 1.0
  outer loop
    vertex 78.80000000000013 35.60000000000002 3.9999999999999996
    vertex 83.00000000000007 19.999999999999964 3.9999999999999996
    vertex 83.00000000000007 35.60000000000002 3.9999999999999996
  endloop
endfacet
facet normal 0.0 0.0 1.0
  outer loop
    vertex 63.40000000000011 45.09999999999999 3.9999999999999996
    vertex 47.200000000000095 47.2 3.9999999999999996
    vertex 47.00000000000014 45.09999999999999 3.9999999999999996
  endloop
endfacet
facet normal 0.0 0.0 1.0
  outer loop
    vertex 47.200000000000095 47.2 3.9999999999999996
    vertex 63.40000000000011 45.09999999999999 3.9999999999999996
    vertex 63.30000000000004 47.2 3.9999999999999996
  endloop
endfacet
facet normal 0.0 0.0 1.0
  outer loop
    vertex 63.30000000000004 47.2 3.9999999999999996
    vertex 63.40000000000011 45.09999999999999 3.9999999999999996
    vertex 63.30000000000004 51.40000000000004 3.9999999999999996
  endloop
endfacet
facet normal 0.0 0.0 1.0
  outer loop
    vertex 63.30000000000004 51.40000000000004 3.9999999999999996
    vertex 63.40000000000011 45.09999999999999 3.9999999999999996
    vertex 78.80000000000013 51.40000000000004 3.9999999999999996
  endloop
endfacet
facet normal 0.0 0.0 1.0
  outer loop
    vertex 78.80000000000013 51.40000000000004 3.9999999999999996
    vertex 63.40000000000011 45.09999999999999 3.9999999999999996
    vertex 78.80000000000013 4.199999999999992 3.9999999999999996
  endloop
endfacet
facet normal 0.0 0.0 1.0
  outer loop
    vertex 78.80000000000013 51.40000000000004 3.9999999999999996
    vertex 78.80000000000013 4.199999999999992 3.9999999999999996
    vertex 78.80000000000013 19.999999999999964 3.9999999999999996
  endloop
endfacet
facet normal 0.0 0.0 1.0
  outer loop
    vertex 78.80000000000013 51.40000000000004 3.9999999999999996
    vertex 78.80000000000013 19.999999999999964 3.9999999999999996
    vertex 78.80000000000013 35.60000000000002 3.9999999999999996
  endloop
endfacet
facet normal 0.0 0.0 1.0
  outer loop
    vertex 31.799999999999986 45.09999999999999 3.9999999999999996
    vertex 15.500000000000085 47.2 3.9999999999999996
    vertex 15.400000000000016 45.09999999999999 3.9999999999999996
  endloop
endfacet
facet normal 0.0 0.0 1.0
  outer loop
    vertex 15.500000000000085 47.2 3.9999999999999996
    vertex 31.799999999999986 45.09999999999999 3.9999999999999996
    vertex 31.600000000000033 47.2 3.9999999999999996
  endloop
endfacet
facet normal 0.0 0.0 1.0
  outer loop
    vertex 31.600000000000033 47.2 3.9999999999999996
    vertex 31.799999999999986 45.09999999999999 3.9999999999999996
    vertex 31.600000000000033 51.40000000000004 3.9999999999999996
  endloop
endfacet
facet normal 0.0 0.0 1.0
  outer loop
    vertex 31.600000000000033 51.40000000000004 3.9999999999999996
    vertex 31.799999999999986 45.09999999999999 3.9999999999999996
    vertex 47.200000000000095 51.40000000000004 3.9999999999999996
  endloop
endfacet
facet normal 0.0 0.0 1.0
  outer loop
    vertex 47.200000000000095 51.40000000000004 3.9999999999999996
    vertex 31.799999999999986 45.09999999999999 3.9999999999999996
    vertex 47.00000000000014 45.09999999999999 3.9999999999999996
  endloop
endfacet
facet normal 0.0 0.0 1.0
  outer loop
    vertex 47.00000000000014 45.09999999999999 3.9999999999999996
    vertex 31.799999999999986 45.09999999999999 3.9999999999999996
    vertex 47.00000000000014 40.70000000000004 3.9999999999999996
  endloop
endfacet
facet normal 0.0 0.0 1.0
  outer loop
    vertex 47.200000000000095 51.40000000000004 3.9999999999999996
    vertex 47.00000000000014 45.09999999999999 3.9999999999999996
    vertex 47.200000000000095 47.2 3.9999999999999996
  endloop
endfacet
facet normal 0.0 0.0 1.0
  outer loop
    vertex 4.199999999999947 35.79999999999998 3.9999999999999996
    vertex 0.0 51.40000000000004 3.9999999999999996
    vertex 0.0 35.79999999999998 3.9999999999999996
  endloop
endfacet
facet normal 0.0 0.0 1.0
  outer loop
    vertex 0.0 51.40000000000004 3.9999999999999996
    vertex 4.199999999999947 35.79999999999998 3.9999999999999996
    vertex 15.500000000000085 51.40000000000004 3.9999999999999996
  endloop
endfacet
facet normal 0.0 0.0 1.0
  outer loop
    vertex 15.500000000000085 51.40000000000004 3.9999999999999996
    vertex 4.199999999999947 35.79999999999998 3.9999999999999996
    vertex 6.399999999999898 36.00000000000002 3.9999999999999996
  endloop
endfacet
facet normal 0.0 0.0 1.0
  outer loop
    vertex 6.399999999999898 36.00000000000002 3.9999999999999996
    vertex 4.199999999999947 35.79999999999998 3.9999999999999996
    vertex 6.399999999999898 19.599999999999962 3.9999999999999996
  endloop
endfacet
facet normal 0.0 0.0 1.0
  outer loop
    vertex 15.500000000000085 51.40000000000004 3.9999999999999996
    vertex 6.399999999999898 36.00000000000002 3.9999999999999996
    vertex 10.699999999999912 36.00000000000002 3.9999999999999996
  endloop
endfacet
facet normal 0.0 0.0 1.0
  outer loop
    vertex 15.500000000000085 51.40000000000004 3.9999999999999996
    vertex 10.699999999999912 36.00000000000002 3.9999999999999996
    vertex 15.400000000000016 45.09999999999999 3.9999999999999996
  endloop
endfacet
facet normal 0.0 0.0 1.0
  outer loop
    vertex 15.400000000000016 45.09999999999999 3.9999999999999996
    vertex 10.699999999999912 36.00000000000002 3.9999999999999996
    vertex 15.400000000000016 40.70000000000004 3.9999999999999996
  endloop
endfacet
facet normal 0.0 0.0 1.0
  outer loop
    vertex 15.500000000000085 51.40000000000004 3.9999999999999996
    vertex 15.400000000000016 45.09999999999999 3.9999999999999996
    vertex 15.500000000000085 47.2 3.9999999999999996
  endloop
endfacet
facet normal 1.0 0.0 0.0
  outer loop
    vertex 15.400000000000016 45.09999999999999 0.0
    vertex 15.400000000000016 40.70000000000004 3.9999999999999996
    vertex 15.400000000000016 40.70000000000004 0.0
  endloop
endfacet
facet normal 1.0 0.0 0.0
  outer loop
    vertex 15.400000000000016 40.70000000000004 3.9999999999999996
    vertex 15.400000000000016 45.09999999999999 0.0
    vertex 15.400000000000016 45.09999999999999 3.9999999999999996
  endloop
endfacet
facet normal -1.0 0.0 0.0
  outer loop
    vertex 4.199999999999947 35.79999999999998 3.9999999999999996
    vertex 4.199999999999947 19.800000000000008 0.0
    vertex 4.199999999999947 19.800000000000008 3.9999999999999996
  endloop
endfacet
facet normal -1.0 0.0 0.0
  outer loop
    vertex 4.199999999999947 19.800000000000008 0.0
    vertex 4.199999999999947 35.79999999999998 3.9999999999999996
    vertex 4.199999999999947 35.79999999999998 0.0
  endloop
endfacet
facet normal 1.0 0.0 0.0
  outer loop
    vertex 47.00000000000014 45.09999999999999 0.0
    vertex 47.00000000000014 40.70000000000004 3.9999999999999996
    vertex 47.00000000000014 40.70000000000004 0.0
  endloop
endfacet
facet normal 1.0 0.0 0.0
  outer loop
    vertex 47.00000000000014 40.70000000000004 3.9999999999999996
    vertex 47.00000000000014 45.09999999999999 0.0
    vertex 47.00000000000014 45.09999999999999 3.9999999999999996
  endloop
endfacet
facet normal 0.0 -1.0 0.0
  outer loop
    vertex 63.40000000000011 45.09999999999999 3.9999999999999996
    vertex 47.00000000000014 45.09999999999999 0.0
    vertex 63.40000000000011 45.09999999999999 0.0
  endloop
endfacet
facet normal 0.0 -1.0 0.0
  outer loop
    vertex 47.00000000000014 45.09999999999999 0.0
    vertex 63.40000000000011 45.09999999999999 3.9999999999999996
    vertex 47.00000000000014 45.09999999999999 3.9999999999999996
  endloop
endfacet
facet normal 1.0 0.0 0.0
  outer loop
    vertex 15.500000000000085 51.40000000000004 0.0
    vertex 15.500000000000085 47.2 3.9999999999999996
    vertex 15.500000000000085 47.2 0.0
  endloop
endfacet
facet normal 1.0 0.0 0.0
  outer loop
    vertex 15.500000000000085 47.2 3.9999999999999996
    vertex 15.500000000000085 51.40000000000004 0.0
    vertex 15.500000000000085 51.40000000000004 3.9999999999999996
  endloop
endfacet
facet normal 1.0 0.0 0.0
  outer loop
    vertex 83.00000000000007 35.60000000000002 0.0
    vertex 83.00000000000007 19.999999999999964 3.9999999999999996
    vertex 83.00000000000007 19.999999999999964 0.0
  endloop
endfacet
facet normal 1.0 0.0 0.0
  outer loop
    vertex 83.00000000000007 19.999999999999964 3.9999999999999996
    vertex 83.00000000000007 35.60000000000002 0.0
    vertex 83.00000000000007 35.60000000000002 3.9999999999999996
  endloop
endfacet
facet normal 0.0 1.0 0.0
  outer loop
    vertex 15.400000000000016 40.70000000000004 3.9999999999999996
    vertex 31.799999999999986 40.70000000000004 0.0
    vertex 15.400000000000016 40.70000000000004 0.0
  endloop
endfacet
facet normal 0.0 1.0 0.0
  outer loop
    vertex 31.799999999999986 40.70000000000004 0.0
    vertex 15.400000000000016 40.70000000000004 3.9999999999999996
    vertex 31.799999999999986 40.70000000000004 3.9999999999999996
  endloop
endfacet
facet normal -1.0 0.0 0.0
  outer loop
    vertex 31.600000000000033 51.40000000000004 3.9999999999999996
    vertex 31.600000000000033 47.2 0.0
    vertex 31.600000000000033 47.2 3.9999999999999996
  endloop
endfacet
facet normal -1.0 0.0 0.0
  outer loop
    vertex 31.600000000000033 47.2 0.0
    vertex 31.600000000000033 51.40000000000004 3.9999999999999996
    vertex 31.600000000000033 51.40000000000004 0.0
  endloop
endfacet
facet normal 0.0 1.0 0.0
  outer loop
    vertex 0.0 51.40000000000004 3.9999999999999996
    vertex 15.500000000000085 51.40000000000004 0.0
    vertex 0.0 51.40000000000004 0.0
  endloop
endfacet
facet normal 0.0 1.0 0.0
  outer loop
    vertex 15.500000000000085 51.40000000000004 0.0
    vertex 0.0 51.40000000000004 3.9999999999999996
    vertex 15.500000000000085 51.40000000000004 3.9999999999999996
  endloop
endfacet
facet normal 1.0 0.0 0.0
  outer loop
    vertex 31.400000000000077 4.199999999999992 0.0
    vertex 31.400000000000077 0.0 3.9999999999999996
    vertex 31.400000000000077 0.0 0.0
  endloop
endfacet
facet normal 1.0 0.0 0.0
  outer loop
    vertex 31.400000000000077 0.0 3.9999999999999996
    vertex 31.400000000000077 4.199999999999992 0.0
    vertex 31.400000000000077 4.199999999999992 3.9999999999999996
  endloop
endfacet
facet normal 0.0 -1.0 0.0
  outer loop
    vertex 4.199999999999947 35.79999999999998 3.9999999999999996
    vertex 0.0 35.79999999999998 0.0
    vertex 4.199999999999947 35.79999999999998 0.0
  endloop
endfacet
facet normal 0.0 -1.0 0.0
  outer loop
    vertex 0.0 35.79999999999998 0.0
    vertex 4.199999999999947 35.79999999999998 3.9999999999999996
    vertex 0.0 35.79999999999998 3.9999999999999996
  endloop
endfacet
facet normal 0.0 1.0 0.0
  outer loop
    vertex 15.500000000000085 47.2 3.9999999999999996
    vertex 31.600000000000033 47.2 0.0
    vertex 15.500000000000085 47.2 0.0
  endloop
endfacet
facet normal 0.0 1.0 0.0
  outer loop
    vertex 31.600000000000033 47.2 0.0
    vertex 15.500000000000085 47.2 3.9999999999999996
    vertex 31.600000000000033 47.2 3.9999999999999996
  endloop
endfacet
facet normal -1.0 0.0 0.0
  outer loop
    vertex 10.699999999999912 36.00000000000002 3.9999999999999996
    vertex 10.699999999999912 19.599999999999962 0.0
    vertex 10.699999999999912 19.599999999999962 3.9999999999999996
  endloop
endfacet
facet normal -1.0 0.0 0.0
  outer loop
    vertex 10.699999999999912 19.599999999999962 0.0
    vertex 10.699999999999912 36.00000000000002 3.9999999999999996
    vertex 10.699999999999912 36.00000000000002 0.0
  endloop
endfacet
facet normal 0.0 1.0 0.0
  outer loop
    vertex 78.80000000000013 35.60000000000002 3.9999999999999996
    vertex 83.00000000000007 35.60000000000002 0.0
    vertex 78.80000000000013 35.60000000000002 0.0
  endloop
endfacet
facet normal 0.0 1.0 0.0
  outer loop
    vertex 83.00000000000007 35.60000000000002 0.0
    vertex 78.80000000000013 35.60000000000002 3.9999999999999996
    vertex 83.00000000000007 35.60000000000002 3.9999999999999996
  endloop
endfacet
facet normal 0.0 1.0 0.0
  outer loop
    vertex 0.0 19.800000000000008 3.9999999999999996
    vertex 4.199999999999947 19.800000000000008 0.0
    vertex 0.0 19.800000000000008 0.0
  endloop
endfacet
facet normal 0.0 1.0 0.0
  outer loop
    vertex 4.199999999999947 19.800000000000008 0.0
    vertex 0.0 19.800000000000008 3.9999999999999996
    vertex 4.199999999999947 19.800000000000008 3.9999999999999996
  endloop
endfacet
facet normal -1.0 0.0 0.0
  outer loop
    vertex 0.0 19.800000000000008 3.9999999999999996
    vertex 0.0 4.199999999999992 0.0
    vertex 0.0 4.199999999999992 3.9999999999999996
  endloop
endfacet
facet normal -1.0 0.0 0.0
  outer loop
    vertex 0.0 4.199999999999992 0.0
    vertex 0.0 19.800000000000008 3.9999999999999996
    vertex 0.0 19.800000000000008 0.0
  endloop
endfacet
facet normal 0.0 0.0 -1.0
  outer loop
    vertex 15.500000000000085 51.40000000000004 0.0
    vertex 0.0 35.79999999999998 0.0
    vertex 0.0 51.40000000000004 0.0
  endloop
endfacet
facet normal 0.0 0.0 -1.0
  outer loop
    vertex 0.0 35.79999999999998 0.0
    vertex 15.500000000000085 51.40000000000004 0.0
    vertex 4.199999999999947 35.79999999999998 0.0
  endloop
endfacet
facet normal 0.0 0.0 -1.0
  outer loop
    vertex 4.199999999999947 35.79999999999998 0.0
    vertex 15.500000000000085 51.40000000000004 0.0
    vertex 6.399999999999898 36.00000000000002 0.0
  endloop
endfacet
facet normal 0.0 0.0 -1.0
  outer loop
    vertex 4.199999999999947 35.79999999999998 0.0
    vertex 6.399999999999898 36.00000000000002 0.0
    vertex 4.199999999999947 19.800000000000008 0.0
  endloop
endfacet
facet normal 0.0 0.0 -1.0
  outer loop
    vertex 6.399999999999898 36.00000000000002 0.0
    vertex 15.500000000000085 51.40000000000004 0.0
    vertex 10.699999999999912 36.00000000000002 0.0
  endloop
endfacet
facet normal 0.0 0.0 -1.0
  outer loop
    vertex 10.699999999999912 36.00000000000002 0.0
    vertex 15.500000000000085 51.40000000000004 0.0
    vertex 10.699999999999912 19.599999999999962 0.0
  endloop
endfacet
facet normal 0.0 0.0 -1.0
  outer loop
    vertex 10.699999999999912 19.599999999999962 0.0
    vertex 15.500000000000085 51.40000000000004 0.0
    vertex 15.400000000000016 45.09999999999999 0.0
  endloop
endfacet
facet normal 0.0 0.0 -1.0
  outer loop
    vertex 15.400000000000016 45.09999999999999 0.0
    vertex 15.500000000000085 51.40000000000004 0.0
    vertex 15.500000000000085 47.2 0.0
  endloop
endfacet
facet normal 0.0 0.0 -1.0
  outer loop
    vertex 15.400000000000016 45.09999999999999 0.0
    vertex 15.500000000000085 47.2 0.0
    vertex 31.799999999999986 45.09999999999999 0.0
  endloop
endfacet
facet normal 0.0 0.0 -1.0
  outer loop
    vertex 31.799999999999986 45.09999999999999 0.0
    vertex 15.500000000000085 47.2 0.0
    vertex 31.600000000000033 47.2 0.0
  endloop
endfacet
facet normal 0.0 0.0 -1.0
  outer loop
    vertex 78.80000000000013 51.40000000000004 0.0
    vertex 63.30000000000004 47.2 0.0
    vertex 63.30000000000004 51.40000000000004 0.0
  endloop
endfacet
facet normal 0.0 0.0 -1.0
  outer loop
    vertex 63.30000000000004 47.2 0.0
    vertex 78.80000000000013 51.40000000000004 0.0
    vertex 63.40000000000011 45.09999999999999 0.0
  endloop
endfacet
facet normal 0.0 0.0 -1.0
  outer loop
    vertex 63.40000000000011 45.09999999999999 0.0
    vertex 78.80000000000013 51.40000000000004 0.0
    vertex 63.40000000000011 40.70000000000004 0.0
  endloop
endfacet
facet normal 0.0 0.0 -1.0
  outer loop
    vertex 83.00000000000007 35.60000000000002 0.0
    vertex 78.80000000000013 19.999999999999964 0.0
    vertex 78.80000000000013 35.60000000000002 0.0
  endloop
endfacet
facet normal 0.0 0.0 -1.0
  outer loop
    vertex 78.80000000000013 19.999999999999964 0.0
    vertex 83.00000000000007 35.60000000000002 0.0
    vertex 83.00000000000007 19.999999999999964 0.0
  endloop
endfacet
facet normal 0.0 0.0 -1.0
  outer loop
    vertex 4.199999999999947 19.800000000000008 0.0
    vertex 0.0 4.199999999999992 0.0
    vertex 0.0 19.800000000000008 0.0
  endloop
endfacet
facet normal 0.0 0.0 -1.0
  outer loop
    vertex 0.0 4.199999999999992 0.0
    vertex 4.199999999999947 19.800000000000008 0.0
    vertex 15.800000000000017 4.199999999999992 0.0
  endloop
endfacet
facet normal 0.0 0.0 -1.0
  outer loop
    vertex 15.800000000000017 4.199999999999992 0.0
    vertex 4.199999999999947 19.800000000000008 0.0
    vertex 6.399999999999898 19.599999999999962 0.0
  endloop
endfacet
facet normal 0.0 0.0 -1.0
  outer loop
    vertex 6.399999999999898 19.599999999999962 0.0
    vertex 4.199999999999947 19.800000000000008 0.0
    vertex 6.399999999999898 36.00000000000002 0.0
  endloop
endfacet
facet normal 0.0 0.0 -1.0
  outer loop
    vertex 15.800000000000017 4.199999999999992 0.0
    vertex 6.399999999999898 19.599999999999962 0.0
    vertex 10.699999999999912 19.599999999999962 0.0
  endloop
endfacet
facet normal 0.0 0.0 -1.0
  outer loop
    vertex 15.800000000000017 4.199999999999992 0.0
    vertex 10.699999999999912 19.599999999999962 0.0
    vertex 15.400000000000016 40.70000000000004 0.0
  endloop
endfacet
facet normal 0.0 0.0 -1.0
  outer loop
    vertex 15.400000000000016 40.70000000000004 0.0
    vertex 10.699999999999912 19.599999999999962 0.0
    vertex 15.400000000000016 45.09999999999999 0.0
  endloop
endfacet
facet normal 0.0 0.0 -1.0
  outer loop
    vertex 15.800000000000017 4.199999999999992 0.0
    vertex 15.400000000000016 40.70000000000004 0.0
    vertex 31.799999999999986 40.70000000000004 0.0
  endloop
endfacet
facet normal 0.0 0.0 -1.0
  outer loop
    vertex 15.800000000000017 4.199999999999992 0.0
    vertex 31.799999999999986 40.70000000000004 0.0
    vertex 15.800000000000017 0.0 0.0
  endloop
endfacet
facet normal 0.0 0.0 -1.0
  outer loop
    vertex 15.800000000000017 0.0 0.0
    vertex 31.799999999999986 40.70000000000004 0.0
    vertex 31.400000000000077 4.199999999999992 0.0
  endloop
endfacet
facet normal 0.0 0.0 -1.0
  outer loop
    vertex 31.400000000000077 4.199999999999992 0.0
    vertex 31.799999999999986 40.70000000000004 0.0
    vertex 47.40000000000005 4.199999999999992 0.0
  endloop
endfacet
facet normal 0.0 0.0 -1.0
  outer loop
    vertex 47.40000000000005 4.199999999999992 0.0
    vertex 31.799999999999986 40.70000000000004 0.0
    vertex 47.00000000000014 40.70000000000004 0.0
  endloop
endfacet
facet normal 0.0 0.0 -1.0
  outer loop
    vertex 47.00000000000014 40.70000000000004 0.0
    vertex 31.799999999999986 40.70000000000004 0.0
    vertex 47.00000000000014 45.09999999999999 0.0
  endloop
endfacet
facet normal 0.0 0.0 -1.0
  outer loop
    vertex 47.40000000000005 4.199999999999992 0.0
    vertex 47.00000000000014 40.70000000000004 0.0
    vertex 63.40000000000011 40.70000000000004 0.0
  endloop
endfacet
facet normal 0.0 0.0 -1.0
  outer loop
    vertex 47.40000000000005 4.199999999999992 0.0
    vertex 63.40000000000011 40.70000000000004 0.0
    vertex 47.40000000000005 0.0 0.0
  endloop
endfacet
facet normal 0.0 0.0 -1.0
  outer loop
    vertex 47.40000000000005 0.0 0.0
    vertex 63.40000000000011 40.70000000000004 0.0
    vertex 63.000000000000114 4.199999999999992 0.0
  endloop
endfacet
facet normal 0.0 0.0 -1.0
  outer loop
    vertex 63.000000000000114 4.199999999999992 0.0
    vertex 63.40000000000011 40.70000000000004 0.0
    vertex 78.80000000000013 4.199999999999992 0.0
  endloop
endfacet
facet normal 0.0 0.0 -1.0
  outer loop
    vertex 78.80000000000013 4.199999999999992 0.0
    vertex 63.40000000000011 40.70000000000004 0.0
    vertex 78.80000000000013 51.40000000000004 0.0
  endloop
endfacet
facet normal 0.0 0.0 -1.0
  outer loop
    vertex 78.80000000000013 4.199999999999992 0.0
    vertex 78.80000000000013 51.40000000000004 0.0
    vertex 78.80000000000013 35.60000000000002 0.0
  endloop
endfacet
facet normal 0.0 0.0 -1.0
  outer loop
    vertex 78.80000000000013 4.199999999999992 0.0
    vertex 78.80000000000013 35.60000000000002 0.0
    vertex 78.80000000000013 19.999999999999964 0.0
  endloop
endfacet
facet normal 0.0 0.0 -1.0
  outer loop
    vertex 47.200000000000095 51.40000000000004 0.0
    vertex 31.600000000000033 47.2 0.0
    vertex 31.600000000000033 51.40000000000004 0.0
  endloop
endfacet
facet normal 0.0 0.0 -1.0
  outer loop
    vertex 31.600000000000033 47.2 0.0
    vertex 47.200000000000095 51.40000000000004 0.0
    vertex 31.799999999999986 45.09999999999999 0.0
  endloop
endfacet
facet normal 0.0 0.0 -1.0
  outer loop
    vertex 31.799999999999986 45.09999999999999 0.0
    vertex 47.200000000000095 51.40000000000004 0.0
    vertex 31.799999999999986 40.70000000000004 0.0
  endloop
endfacet
facet normal 0.0 0.0 -1.0
  outer loop
    vertex 31.799999999999986 40.70000000000004 0.0
    vertex 47.200000000000095 51.40000000000004 0.0
    vertex 47.00000000000014 45.09999999999999 0.0
  endloop
endfacet
facet normal 0.0 0.0 -1.0
  outer loop
    vertex 47.00000000000014 45.09999999999999 0.0
    vertex 47.200000000000095 51.40000000000004 0.0
    vertex 47.200000000000095 47.2 0.0
  endloop
endfacet
facet normal 0.0 0.0 -1.0
  outer loop
    vertex 47.00000000000014 45.09999999999999 0.0
    vertex 47.200000000000095 47.2 0.0
    vertex 63.40000000000011 45.09999999999999 0.0
  endloop
endfacet
facet normal 0.0 0.0 -1.0
  outer loop
    vertex 63.40000000000011 45.09999999999999 0.0
    vertex 47.200000000000095 47.2 0.0
    vertex 63.30000000000004 47.2 0.0
  endloop
endfacet
facet normal 0.0 0.0 -1.0
  outer loop
    vertex 63.000000000000114 0.0 0.0
    vertex 47.40000000000005 0.0 0.0
    vertex 63.000000000000114 4.199999999999992 0.0
  endloop
endfacet
facet normal 0.0 0.0 -1.0
  outer loop
    vertex 31.400000000000077 0.0 0.0
    vertex 15.800000000000017 0.0 0.0
    vertex 31.400000000000077 4.199999999999992 0.0
  endloop
endfacet
facet normal -1.0 0.0 0.0
  outer loop
    vertex 0.0 51.40000000000004 3.9999999999999996
    vertex 0.0 35.79999999999998 0.0
    vertex 0.0 35.79999999999998 3.9999999999999996
  endloop
endfacet
facet normal -1.0 0.0 0.0
  outer loop
    vertex 0.0 35.79999999999998 0.0
    vertex 0.0 51.40000000000004 3.9999999999999996
    vertex 0.0 51.40000000000004 0.0
  endloop
endfacet
facet normal 1.0 0.0 0.0
  outer loop
    vertex 78.80000000000013 51.40000000000004 0.0
    vertex 78.80000000000013 35.60000000000002 3.9999999999999996
    vertex 78.80000000000013 35.60000000000002 0.0
  endloop
endfacet
facet normal 1.0 0.0 0.0
  outer loop
    vertex 78.80000000000013 35.60000000000002 3.9999999999999996
    vertex 78.80000000000013 51.40000000000004 0.0
    vertex 78.80000000000013 51.40000000000004 3.9999999999999996
  endloop
endfacet
facet normal -1.0 0.0 0.0
  outer loop
    vertex 47.40000000000005 4.199999999999992 3.9999999999999996
    vertex 47.40000000000005 0.0 0.0
    vertex 47.40000000000005 0.0 3.9999999999999996
  endloop
endfacet
facet normal -1.0 0.0 0.0
  outer loop
    vertex 47.40000000000005 0.0 0.0
    vertex 47.40000000000005 4.199999999999992 3.9999999999999996
    vertex 47.40000000000005 4.199999999999992 0.0
  endloop
endfacet
facet normal 0.0 -1.0 0.0
  outer loop
    vertex 63.000000000000114 0.0 3.9999999999999996
    vertex 47.40000000000005 0.0 0.0
    vertex 63.000000000000114 0.0 0.0
  endloop
endfacet
facet normal 0.0 -1.0 0.0
  outer loop
    vertex 47.40000000000005 0.0 0.0
    vertex 63.000000000000114 0.0 3.9999999999999996
    vertex 47.40000000000005 0.0 3.9999999999999996
  endloop
endfacet
facet normal 0.0 1.0 0.0
  outer loop
    vertex 47.200000000000095 47.2 3.9999999999999996
    vertex 63.30000000000004 47.2 0.0
    vertex 47.200000000000095 47.2 0.0
  endloop
endfacet
facet normal 0.0 1.0 0.0
  outer loop
    vertex 63.30000000000004 47.2 0.0
    vertex 47.200000000000095 47.2 3.9999999999999996
    vertex 63.30000000000004 47.2 3.9999999999999996
  endloop
endfacet
facet normal 0.0 1.0 0.0
  outer loop
    vertex 31.600000000000033 51.40000000000004 3.9999999999999996
    vertex 47.200000000000095 51.40000000000004 0.0
    vertex 31.600000000000033 51.40000000000004 0.0
  endloop
endfacet
facet normal 0.0 1.0 0.0
  outer loop
    vertex 47.200000000000095 51.40000000000004 0.0
    vertex 31.600000000000033 51.40000000000004 3.9999999999999996
    vertex 47.200000000000095 51.40000000000004 3.9999999999999996
  endloop
endfacet
facet normal 0.0 1.0 0.0
  outer loop
    vertex 47.00000000000014 40.70000000000004 3.9999999999999996
    vertex 63.40000000000011 40.70000000000004 0.0
    vertex 47.00000000000014 40.70000000000004 0.0
  endloop
endfacet
facet normal 0.0 1.0 0.0
  outer loop
    vertex 63.40000000000011 40.70000000000004 0.0
    vertex 47.00000000000014 40.70000000000004 3.9999999999999996
    vertex 63.40000000000011 40.70000000000004 3.9999999999999996
  endloop
endfacet
facet normal 0.0 -1.0 0.0
  outer loop
    vertex 83.00000000000007 19.999999999999964 3.9999999999999996
    vertex 78.80000000000013 19.999999999999964 0.0
    vertex 83.00000000000007 19.999999999999964 0.0
  endloop
endfacet
facet normal 0.0 -1.0 0.0
  outer loop
    vertex 78.80000000000013 19.999999999999964 0.0
    vertex 83.00000000000007 19.999999999999964 3.9999999999999996
    vertex 78.80000000000013 19.999999999999964 3.9999999999999996
  endloop
endfacet
facet normal 1.0 0.0 0.0
  outer loop
    vertex 6.399999999999898 36.00000000000002 0.0
    vertex 6.399999999999898 19.599999999999962 3.9999999999999996
    vertex 6.399999999999898 19.599999999999962 0.0
  endloop
endfacet
facet normal 1.0 0.0 0.0
  outer loop
    vertex 6.399999999999898 19.599999999999962 3.9999999999999996
    vertex 6.399999999999898 36.00000000000002 0.0
    vertex 6.399999999999898 36.00000000000002 3.9999999999999996
  endloop
endfacet
facet normal -1.0 0.0 0.0
  outer loop
    vertex 63.40000000000011 45.09999999999999 3.9999999999999996
    vertex 63.40000000000011 40.70000000000004 0.0
    vertex 63.40000000000011 40.70000000000004 3.9999999999999996
  endloop
endfacet
facet normal -1.0 0.0 0.0
  outer loop
    vertex 63.40000000000011 40.70000000000004 0.0
    vertex 63.40000000000011 45.09999999999999 3.9999999999999996
    vertex 63.40000000000011 45.09999999999999 0.0
  endloop
endfacet
facet normal 1.0 0.0 0.0
  outer loop
    vertex 63.000000000000114 4.199999999999992 0.0
    vertex 63.000000000000114 0.0 3.9999999999999996
    vertex 63.000000000000114 0.0 0.0
  endloop
endfacet
facet normal 1.0 0.0 0.0
  outer loop
    vertex 63.000000000000114 0.0 3.9999999999999996
    vertex 63.000000000000114 4.199999999999992 0.0
    vertex 63.000000000000114 4.199999999999992 3.9999999999999996
  endloop
endfacet
facet normal -1.0 0.0 0.0
  outer loop
    vertex 31.799999999999986 45.09999999999999 3.9999999999999996
    vertex 31.799999999999986 40.70000000000004 0.0
    vertex 31.799999999999986 40.70000000000004 3.9999999999999996
  endloop
endfacet
facet normal -1.0 0.0 0.0
  outer loop
    vertex 31.799999999999986 40.70000000000004 0.0
    vertex 31.799999999999986 45.09999999999999 3.9999999999999996
    vertex 31.799999999999986 45.09999999999999 0.0
  endloop
endfacet
endsolid Buildlt.VenturaAngelo.unibz
